<svg width="3923" height="2136" viewBox="0 0 3923 2136" fill="none" xmlns="http://www.w3.org/2000/svg">
<g clip-path="url(#clip0_1302_944)">
<path d="M3284.62 1928.11C3287.59 1928.11 3287.59 1923.5 3284.62 1923.5C3281.65 1923.5 3281.65 1928.11 3284.62 1928.11Z" fill="white"/>
<path d="M769.641 1758.21C758.551 1759.4 750.841 1751.51 749.851 1742.26C748.991 1734.25 754.221 1724.96 766.481 1723.02C823.521 1714.39 898.551 1705.08 965.711 1697.85C994.671 1694.74 1022.4 1691.75 1046.49 1689.78C1082.29 1686.55 1106.04 1704.57 1109.09 1732.91C1109.82 1739.69 1108.77 1747.28 1107.16 1755.56C1077.83 1882.75 1013.67 2010.56 849.961 2093.62C845.231 2096 840.981 2097.08 837.291 2097.48C824.351 2098.87 816.031 2091.04 815.031 2081.8C814.231 2074.4 818.921 2065.8 829.611 2060.91C1036.12 1970.14 1070.39 1761.39 1068.27 1741.68C1066.08 1721.35 1053.01 1721.51 1005.57 1726.61C940.261 1733.64 845.771 1747.54 770.251 1758.16L769.631 1758.23L769.641 1758.21Z" fill="#8FA8D7"/>
<path d="M1336.34 2134.32C1315.1 2133.92 1291.46 2133.92 1267.01 2133.92C1218.12 2133.92 1166.82 2134.32 1128.75 2135.52H1128.35C1120.74 2135.52 1117.13 2130.71 1117.13 2125.5C1117.13 2120.69 1121.14 2115.48 1129.15 2115.08L1220.52 2113.48C1220.52 2107.87 1220.92 2101.06 1220.92 2026.12C1198.08 2026.12 1176.84 2026.12 1163.21 2025.72C1156.4 2025.72 1152.79 2020.51 1152.79 2015.7C1152.79 2010.89 1156.4 2006.08 1162.81 2006.08H1163.21C1177.24 2006.48 1196.07 2006.48 1216.11 2006.48C1244.56 2006.48 1275.42 2006.08 1299.47 2005.28H1300.27C1307.08 2005.28 1310.69 2010.09 1310.69 2014.9C1310.69 2019.71 1307.08 2024.92 1299.87 2024.92L1242.16 2025.72V2113.48C1276.22 2113.08 1310.69 2113.08 1337.94 2113.08C1345.15 2113.08 1349.16 2118.29 1349.16 2123.5C1349.16 2128.71 1345.15 2134.32 1336.74 2134.32H1336.34Z" fill="#8FA8D7"/>
<path d="M746.57 1747.85C735.48 1749.04 727.77 1741.15 726.78 1731.9C725.92 1723.89 731.15 1714.6 743.41 1712.66C800.45 1704.03 875.48 1694.72 942.64 1687.49C971.6 1684.38 999.33 1681.39 1023.42 1679.42C1059.22 1676.19 1082.97 1694.21 1086.02 1722.55C1086.75 1729.33 1085.7 1736.92 1084.09 1745.2C1054.76 1872.39 990.6 2000.2 826.89 2083.26C822.16 2085.64 817.91 2086.72 814.22 2087.12C801.28 2088.51 792.96 2080.68 791.96 2071.44C791.16 2064.04 795.85 2055.44 806.54 2050.55C1013.05 1959.78 1047.32 1751.03 1045.2 1731.32C1043.01 1710.99 1029.94 1711.15 982.5 1716.25C917.19 1723.28 822.7 1737.18 747.18 1747.8L746.56 1747.87L746.57 1747.85Z" fill="#234159"/>
<path d="M1317.52 2123.31C1296.28 2122.91 1272.64 2122.91 1248.19 2122.91C1199.3 2122.91 1148 2123.31 1109.93 2124.51H1109.53C1101.92 2124.51 1098.31 2119.7 1098.31 2114.49C1098.31 2109.68 1102.32 2104.47 1110.33 2104.07L1201.7 2102.47C1201.7 2096.86 1202.1 2090.05 1202.1 2015.11C1179.26 2015.11 1158.02 2015.11 1144.39 2014.71C1137.58 2014.71 1133.97 2009.5 1133.97 2004.69C1133.97 1999.88 1137.58 1995.07 1143.99 1995.07H1144.39C1158.42 1995.47 1177.25 1995.47 1197.29 1995.47C1225.74 1995.47 1256.6 1995.07 1280.65 1994.27H1281.45C1288.26 1994.27 1291.87 1999.08 1291.87 2003.89C1291.87 2008.7 1288.26 2013.91 1281.05 2013.91L1223.34 2014.71V2102.47C1257.4 2102.07 1291.87 2102.07 1319.12 2102.07C1326.33 2102.07 1330.34 2107.28 1330.34 2112.49C1330.34 2117.7 1326.33 2123.31 1317.92 2123.31H1317.52V2123.31Z" fill="#0B3E6B"/>
<path d="M1477.25 1812.95C1469.2 1812.56 1464.99 1805.8 1465.29 1799.77C1465.61 1793.23 1470.45 1786.91 1479.53 1786.85C1516.82 1787.14 1593.84 1789.36 1645.65 1791.87C1675.32 1793.31 1688.67 1809.08 1687.85 1826.18C1687.56 1832.21 1685.73 1838.68 1681.92 1844.54C1662.78 1875.37 1641.18 1905.08 1616.13 1933.1C1658.12 1961.35 1754.91 2034.09 1753.64 2060.25C1753.2 2069.3 1745.29 2076.48 1737.25 2076.09C1732.72 2075.87 1728.8 2073.66 1724.99 2068.94C1699.94 2034.45 1641.6 1979.7 1598.05 1952.39C1517.97 2034.21 1423.55 2068.46 1411.98 2067.89C1403.43 2067.48 1397.71 2060.65 1398.05 2053.61C1398.32 2048.08 1402.11 2042.71 1411.33 2039.63C1562.42 1990.49 1653.05 1847.17 1653.93 1829.07C1654.44 1818.51 1643.88 1818 1627.79 1817.22C1591.08 1815.44 1519.56 1814 1477.77 1812.98L1477.27 1812.96L1477.25 1812.95Z" fill="#8FA8D7"/>
<path d="M2273.46 1829.8C2252.13 1832.3 2224.32 1835.75 2192.45 1840.39C2170.62 1843.57 2146.51 1847.68 2121.73 1851.29C2149.84 2052.66 1971.53 2127.43 1961.5 2128.89C1950.29 2130.52 1942.68 2123.8 1941.57 2116.13C1940.54 2109.05 1944.74 2100.61 1954.33 2096.2C2056.91 2051.74 2101.78 1958.44 2087.18 1858.14L2086.92 1856.37C2015.02 1867.44 1943.3 1879.69 1898.12 1888.07L1897.53 1888.16C1886.32 1889.79 1879.3 1882.98 1878.19 1875.31C1877.07 1867.64 1882.36 1858.43 1895.34 1856.54C1980.72 1842.91 2172.9 1813.72 2270.76 1798.87C2282.56 1797.15 2288.99 1804.05 2290.02 1811.13C2291.22 1819.39 2286.44 1827.92 2274.05 1829.73L2273.46 1829.82V1829.8ZM2183.62 1688.63C2194.83 1687 2201.17 1693.3 2202.29 1700.98C2203.41 1708.65 2198.71 1717.77 2188.68 1719.23C2105.66 1732.52 2013.37 1748.37 1949.05 1757.73C1936.66 1759.53 1930.32 1753.23 1929.2 1745.56C1928.08 1737.89 1933.37 1728.68 1945.17 1726.96L1969.95 1723.35C2039.57 1713.21 2111.89 1700.88 2183.02 1688.72L2183.61 1688.63H2183.62Z" fill="#8FA8D7"/>
<path d="M2394.05 2125.67C2392.55 2133.54 2385.9 2136.36 2380.39 2135.31C2375.27 2134.34 2370.83 2129.82 2372.25 2122.34L2372.32 2121.95C2377.73 2095.65 2389.83 2038.39 2396.42 2003.74C2349.1 2035.95 2293.45 2060.45 2282.43 2058.36C2276.13 2057.16 2273.09 2051.69 2274.06 2046.57C2274.81 2042.63 2277.53 2039.07 2282.7 2037.61C2347.1 2016.4 2409.91 1975.72 2453.79 1929.39C2457.37 1925.58 2461.68 1924.36 2465.22 1925.04C2470.73 1926.09 2475.35 1931.86 2474.22 1937.77C2473.77 1940.13 2472.53 1942.34 2470.12 1944.33C2453.37 1959.5 2437.23 1973.57 2421.4 1986.06C2416.89 2007.64 2407.35 2053.55 2400.61 2088.99C2397.84 2103.56 2395.37 2116.55 2394.12 2125.29L2394.05 2125.68V2125.67Z" fill="#8FA8D7"/>
<path d="M1456.94 1799.72C1448.89 1799.33 1444.68 1792.57 1444.98 1786.54C1445.3 1780 1450.14 1773.68 1459.22 1773.62C1496.51 1773.91 1573.53 1776.13 1625.34 1778.64C1655.01 1780.08 1668.36 1795.85 1667.54 1812.95C1667.25 1818.98 1665.42 1825.45 1661.61 1831.31C1642.47 1862.14 1620.87 1891.85 1595.82 1919.87C1637.81 1948.12 1734.6 2020.86 1733.33 2047.02C1732.89 2056.07 1724.98 2063.25 1716.94 2062.86C1712.41 2062.64 1708.49 2060.43 1704.68 2055.71C1679.63 2021.22 1621.29 1966.47 1577.74 1939.16C1497.66 2020.98 1403.24 2055.23 1391.67 2054.66C1383.12 2054.25 1377.4 2047.42 1377.74 2040.38C1378.01 2034.85 1381.8 2029.48 1391.02 2026.4C1542.11 1977.26 1632.74 1833.94 1633.62 1815.84C1634.13 1805.28 1623.57 1804.77 1607.48 1803.99C1570.77 1802.21 1499.25 1800.77 1457.46 1799.75L1456.96 1799.73L1456.94 1799.72Z" fill="#234159"/>
<path d="M2250.44 1820.48C2229.11 1822.98 2201.3 1826.43 2169.43 1831.07C2147.6 1834.25 2123.49 1838.36 2098.71 1841.97C2126.82 2043.34 1948.51 2118.11 1938.48 2119.57C1927.27 2121.2 1919.66 2114.48 1918.55 2106.81C1917.52 2099.73 1921.72 2091.29 1931.31 2086.88C2033.89 2042.42 2078.76 1949.12 2064.16 1848.82L2063.9 1847.05C1992 1858.12 1920.28 1870.37 1875.1 1878.75L1874.51 1878.84C1863.3 1880.47 1856.28 1873.66 1855.17 1865.99C1854.05 1858.32 1859.34 1849.11 1872.32 1847.22C1957.7 1833.59 2149.88 1804.4 2247.74 1789.55C2259.54 1787.83 2265.97 1794.73 2267 1801.81C2268.2 1810.07 2263.42 1818.6 2251.03 1820.41L2250.44 1820.5V1820.48ZM2160.6 1679.31C2171.81 1677.68 2178.15 1683.98 2179.27 1691.66C2180.39 1699.33 2175.69 1708.45 2165.66 1709.91C2082.64 1723.2 1990.35 1739.05 1926.03 1748.41C1913.64 1750.21 1907.3 1743.91 1906.18 1736.24C1905.06 1728.57 1910.35 1719.36 1922.15 1717.64L1946.93 1714.03C2016.55 1703.89 2088.87 1691.56 2160 1679.4L2160.59 1679.31H2160.6Z" fill="#234159"/>
<path d="M2377.62 2111.34C2376.12 2119.21 2369.47 2122.03 2363.96 2120.98C2358.84 2120.01 2354.4 2115.49 2355.82 2108.01L2355.89 2107.62C2361.3 2081.32 2373.4 2024.06 2379.99 1989.41C2332.67 2021.62 2277.02 2046.12 2266 2044.03C2259.7 2042.83 2256.66 2037.36 2257.63 2032.24C2258.38 2028.3 2261.1 2024.74 2266.27 2023.28C2330.67 2002.07 2393.48 1961.39 2437.36 1915.06C2440.94 1911.25 2445.25 1910.03 2448.79 1910.71C2454.3 1911.76 2458.92 1917.53 2457.79 1923.44C2457.34 1925.8 2456.1 1928.01 2453.69 1930C2436.94 1945.17 2420.8 1959.24 2404.97 1971.73C2400.46 1993.31 2390.92 2039.22 2384.18 2074.66C2381.41 2089.23 2378.94 2102.22 2377.69 2110.96L2377.62 2111.35V2111.34Z" fill="#234159"/>
<path d="M2611 2106.19C2600.86 2108.32 2591.88 2101.97 2590.1 2093.52C2588.8 2087.32 2590.31 2080.53 2597.26 2074.37C2647.73 2026.12 2681.57 1951.94 2693.12 1883.62C2694.94 1872.65 2700.75 1866.72 2706.95 1865.42C2715.97 1863.53 2726.08 1869.64 2728.21 1879.78C2729.98 1888.23 2707.2 2009.51 2624.03 2098.17C2619.67 2102.61 2615.52 2105.25 2611.01 2106.2L2611 2106.19ZM2998.56 1998.92C2967.54 1943.65 2890.5 1882.17 2843.95 1856.64C2839.98 1854.53 2837.46 1850.94 2836.75 1847.56C2835.21 1840.23 2840.43 1831.49 2849.45 1829.6C2853.4 1828.77 2858.82 1829.4 2864.84 1832.84C2933.53 1871.37 3025.78 1952.02 3032.87 1985.83C3035.35 1997.66 3027.55 2008.13 3018.53 2010.02C3011.77 2011.44 3004.06 2008.35 2998.55 1998.92H2998.56ZM2937.48 1811.7C2923.25 1799.98 2892.74 1786.38 2874.3 1782.6C2868.76 1781.41 2865.79 1778.5 2864.96 1774.56C2863.78 1768.92 2868.11 1761.54 2876.56 1759.77C2888.39 1757.29 2954.99 1777.43 2959.25 1797.71C2960.91 1805.6 2955.44 1813.22 2948.68 1814.64C2944.73 1815.47 2941 1814.49 2937.47 1811.7H2937.48ZM2975.62 1760.74C2961.51 1749.58 2930.55 1736.66 2911.55 1733.01C2906 1731.82 2902.36 1728.47 2901.53 1724.52C2900.35 1718.89 2904.68 1711.51 2913.13 1709.73C2923.28 1707.6 2992.9 1725.34 2997.27 1746.19C2999.04 1754.64 2993.58 1762.26 2986.26 1763.8C2982.88 1764.51 2979.14 1763.53 2975.62 1760.74V1760.74Z" fill="#8FA8D7"/>
<path d="M3082.05 2031.41C3083.2 2025.49 3088.12 2020.29 3096.93 2018.09C3190.6 1996.03 3254.39 1923.47 3274.65 1819.01L3277.16 1806.09C3279.46 1794.25 3287.5 1790.22 3295.04 1791.68C3311.73 1794.92 3308.91 1809.45 3306.93 1819.68C3270.28 2008.68 3113.06 2053.06 3095.83 2049.71C3085.6 2047.73 3080.49 2039.47 3082.06 2031.4L3082.05 2031.41ZM3400.72 1820L3353.82 2021.53L3353.61 2022.61C3351.63 2032.84 3355.74 2037.55 3362.2 2038.8C3378.89 2042.04 3469.91 2007.73 3547.55 1912.72C3552.78 1905.91 3559.23 1904.37 3564.61 1905.41C3572.15 1906.87 3578.43 1914.8 3576.66 1923.95C3576.03 1927.18 3574.87 1930.31 3572.09 1933.12C3489.41 2031.06 3380.18 2078.6 3346.8 2072.12C3327.95 2068.47 3315.82 2053.26 3320.1 2031.19L3320.94 2026.88C3334.42 1977.54 3364.2 1846.99 3370.47 1814.68C3372.77 1802.83 3381.99 1798.48 3389.53 1799.94C3397.07 1801.4 3403.02 1808.14 3400.83 1819.45L3400.73 1819.99L3400.72 1820Z" fill="#8FA8D7"/>
<path d="M2587.07 2098.2C2576.93 2100.33 2567.95 2093.98 2566.17 2085.53C2564.87 2079.33 2566.38 2072.54 2573.33 2066.38C2623.8 2018.13 2657.64 1943.95 2669.19 1875.63C2671.01 1864.66 2676.82 1858.73 2683.02 1857.43C2692.04 1855.54 2702.15 1861.65 2704.28 1871.79C2706.05 1880.24 2683.27 2001.52 2600.1 2090.18C2595.74 2094.62 2591.59 2097.26 2587.08 2098.21L2587.07 2098.2ZM2974.63 1990.93C2943.61 1935.66 2866.57 1874.18 2820.02 1848.65C2816.05 1846.54 2813.53 1842.95 2812.82 1839.57C2811.28 1832.24 2816.5 1823.5 2825.52 1821.61C2829.47 1820.78 2834.89 1821.41 2840.91 1824.85C2909.6 1863.38 3001.85 1944.03 3008.94 1977.84C3011.42 1989.67 3003.62 2000.14 2994.6 2002.03C2987.84 2003.45 2980.13 2000.36 2974.62 1990.93H2974.63ZM2913.55 1803.71C2899.32 1791.99 2868.81 1778.39 2850.37 1774.61C2844.83 1773.42 2841.86 1770.51 2841.03 1766.57C2839.85 1760.93 2844.18 1753.55 2852.63 1751.78C2864.46 1749.3 2931.06 1769.44 2935.32 1789.72C2936.98 1797.61 2931.51 1805.23 2924.75 1806.65C2920.8 1807.48 2917.07 1806.5 2913.54 1803.71H2913.55ZM2951.69 1752.75C2937.58 1741.59 2906.62 1728.67 2887.62 1725.02C2882.07 1723.83 2878.43 1720.48 2877.6 1716.53C2876.42 1710.9 2880.75 1703.52 2889.2 1701.74C2899.35 1699.61 2968.97 1717.35 2973.34 1738.2C2975.11 1746.65 2969.65 1754.27 2962.33 1755.81C2958.95 1756.52 2955.21 1755.54 2951.69 1752.75V1752.75Z" fill="#234159"/>
<path d="M3065.67 2017.02C3066.82 2011.1 3071.74 2005.9 3080.55 2003.7C3174.22 1981.64 3238.01 1909.08 3258.27 1804.62L3260.78 1791.7C3263.08 1779.86 3271.12 1775.83 3278.66 1777.29C3295.35 1780.53 3292.53 1795.06 3290.55 1805.29C3253.9 1994.29 3096.68 2038.67 3079.45 2035.32C3069.22 2033.34 3064.11 2025.08 3065.68 2017.01L3065.67 2017.02ZM3384.34 1805.61L3337.44 2007.14L3337.23 2008.22C3335.25 2018.45 3339.36 2023.16 3345.82 2024.41C3362.51 2027.65 3453.53 1993.34 3531.17 1898.33C3536.4 1891.52 3542.85 1889.98 3548.23 1891.02C3555.77 1892.48 3562.05 1900.41 3560.28 1909.56C3559.65 1912.79 3558.49 1915.92 3555.71 1918.73C3473.03 2016.67 3363.8 2064.21 3330.42 2057.73C3311.57 2054.08 3299.44 2038.87 3303.72 2016.8L3304.56 2012.49C3318.04 1963.15 3347.82 1832.6 3354.09 1800.29C3356.39 1788.44 3365.61 1784.09 3373.15 1785.55C3380.69 1787.01 3386.64 1793.75 3384.45 1805.06L3384.35 1805.6L3384.34 1805.61Z" fill="#234159"/>
<path d="M378.89 1424.85L492.73 1004.35L26.8604 878.23L70.3704 717.49L142.47 737.01L148.55 675.91L104.45 663.97L149.94 495.93L296.07 535.49L316.84 458.77L499.5 508.22L478.73 584.94L597.55 617.11L613.27 559.03L961.74 653.37L1018.23 785.04L854.95 1022.21L870.14 1090.12C879.3 1129.62 879.48 1176.61 870.69 1229.79L870.64 1230.06C860.4 1288.26 844.95 1329.96 823.46 1357.35C814.55 1374.73 799.19 1389.85 777.72 1402.36C757.91 1416 737.57 1423.53 717.27 1424.75C684.83 1427.38 646.14 1422.7 602.24 1410.81L583.65 1405.78L582.49 1382.34L557.87 1473.3L378.87 1424.84L378.89 1424.85ZM627.26 1217.08C653.62 1222.54 661.48 1219.67 662.23 1219.35L663.18 1218.81L664.28 1218.3C667.77 1216.7 678.38 1211.84 683.28 1184.48C691.18 1134.54 688.41 1086.28 675.07 1040.5L627.27 1217.08H627.26ZM712.61 901.8L785.71 793.91L744.82 782.84L712.62 901.8H712.61ZM536.24 843.61L552.07 785.15L526.61 778.26L497.14 833.03L536.24 843.62V843.61ZM326.19 783.23L353.71 727.94L323.75 719.83L317.67 780.93L326.19 783.24V783.23Z" fill="white" stroke="#214057" stroke-width="22.7" stroke-linecap="round" stroke-linejoin="round"/>
<path d="M59.3506 859.58L89.0206 749.98L165.741 770.75L177.141 656.21L136.951 645.33L168.601 528.43L314.731 567.99L335.501 491.27L467.021 526.87L446.251 603.59L574.111 638.2L542.461 755.1L513.231 747.19L457.991 849.86L527.401 868.65L497.731 978.25L59.3506 859.58ZM289.091 800.63L340.241 814.48L391.831 710.82L300.501 686.1L289.101 800.64L289.091 800.63ZM609.181 1385.25L601.931 1238.21C638.461 1248.1 662.891 1249.51 675.301 1242.39C693.201 1234.19 704.521 1216.36 709.391 1188.88C720.531 1118.75 712.321 1052.44 684.791 990.09L828.461 778.04L726.171 750.35L539.251 1440.81L411.391 1406.2L631.941 591.52L942.471 675.58L988.151 782.05L826.601 1016.71L844.341 1096.01C852.771 1132.3 852.851 1175.45 844.581 1225.47C834.921 1280.39 820.391 1319.58 800.981 1343.06C794.571 1357.01 782.111 1369.32 763.541 1379.98C747.371 1391.29 731.371 1397.43 715.441 1398.33C685.981 1400.77 650.581 1396.45 609.191 1385.25H609.181Z" fill="#725D9E"/>
<path d="M60.0205 859.95L89.6905 750.35L166.411 771.12L177.811 656.58L137.62 645.7L169.271 528.8L315.4 568.36L336.171 491.64L467.691 527.24L446.921 603.96L574.781 638.57L543.131 755.47L513.901 747.56L458.661 850.23L528.071 869.02L498.401 978.62L60.0205 859.95ZM289.761 801L340.911 814.85L392.501 711.19L301.171 686.47L289.77 801.01L289.761 801ZM609.85 1385.62L602.6 1238.58C639.13 1248.47 663.56 1249.88 675.97 1242.76C693.87 1234.56 705.19 1216.73 710.06 1189.25C721.2 1119.12 712.991 1052.81 685.461 990.46L829.13 778.41L726.841 750.72L539.921 1441.18L412.061 1406.57L632.61 591.89L943.141 675.95L988.82 782.42L827.271 1017.08L845.01 1096.38C853.44 1132.67 853.52 1175.82 845.25 1225.84C835.59 1280.76 821.061 1319.95 801.651 1343.43C795.241 1357.38 782.781 1369.69 764.211 1380.35C748.041 1391.66 732.04 1397.8 716.11 1398.7C686.65 1401.14 651.25 1396.82 609.86 1385.62H609.85Z" fill="#725D9E"/>
<path d="M92.5003 1159.32C95.1803 1157.61 97.8903 1155.95 100.63 1154.31C99.0303 1148.23 97.5503 1142.1 96.3703 1135.83C94.1903 1124.22 92.4603 1113.09 91.3003 1102.14C84.2903 1105.27 77.0403 1108.01 69.4803 1110.18C52.1103 1115.15 34.0403 1117.02 15.3603 1115.97C7.96029 1140.77 5.38029 1167.45 8.69029 1194.78C9.59029 1202.24 10.9503 1209.54 12.6503 1216.68C31.1803 1200.67 57.7603 1181.54 92.5003 1159.32V1159.32Z" fill="#EE7A62" stroke="#712F1B" stroke-width="14.53" stroke-miterlimit="10"/>
<path d="M197.741 977.24C191.261 977.37 184.741 977.82 178.171 978.62C154.441 981.49 132.241 988.55 112.191 998.94C101.321 1033.77 98.7208 1061.52 100.121 1087.16C143.621 1062.74 175.461 1019.21 197.731 977.25L197.741 977.24Z" fill="#EE7A62" stroke="#712F1B" stroke-width="14.53" stroke-miterlimit="10"/>
<path d="M18.3906 1106.68C35.1406 1107.36 51.3306 1105.58 66.8806 1101.12C75.0606 1098.78 82.8906 1095.75 90.4106 1092.17C88.4406 1064.66 90.5706 1037.67 99.2506 1006.31C61.7106 1029.59 33.1206 1065.12 18.3906 1106.68Z" fill="#EE7A62" stroke="#712F1B" stroke-width="14.53" stroke-miterlimit="10"/>
<path d="M128.71 1223.07C100.78 1240.84 78.3498 1268.63 61.5898 1306.15C102.43 1348.5 161.93 1371.88 224.84 1364.27C233.42 1363.23 241.78 1361.59 249.94 1359.5C213.61 1331.21 162.81 1284.38 128.7 1223.08L128.71 1223.07Z" fill="#EE7A62" stroke="#712F1B" stroke-width="14.53" stroke-miterlimit="10"/>
<path d="M100.9 1097.45C102.08 1109.76 104.06 1121.73 106.36 1133.95C107.32 1139.05 108.46 1144.08 109.71 1149.06C195.18 1101.4 304.25 1087.65 375.02 1084.1C343.68 1021.85 280.29 979.98 208.89 977.35C185.35 1023.07 150.35 1071.52 100.9 1097.44V1097.45Z" fill="#EE7A62" stroke="#712F1B" stroke-width="14.53" stroke-miterlimit="10"/>
<path d="M97.5701 1167.25C56.3901 1193.59 31.0201 1212.9 15.3701 1226.86C23.3601 1253.82 36.9001 1278.11 54.6101 1298.54C72.0701 1260.9 95.3401 1232.89 124.18 1214.72C115.82 1198.64 108.64 1181.63 103.22 1163.73C101.32 1164.89 99.4401 1166.06 97.5701 1167.25V1167.25Z" fill="#EE7A62" stroke="#712F1B" stroke-width="14.53" stroke-miterlimit="10"/>
<path d="M112.301 1158.41C117.561 1176.39 124.631 1193.49 132.971 1209.62C134.221 1208.95 135.421 1208.2 136.691 1207.56C220.231 1165.34 324.471 1207 383.691 1238.74C394.081 1210.69 398.171 1179.84 394.331 1148.11C391.981 1128.7 386.821 1110.33 379.351 1093.31C309.191 1096.5 198.071 1109.79 112.311 1158.41H112.301Z" fill="#EE7A62" stroke="#712F1B" stroke-width="14.53" stroke-miterlimit="10"/>
<path d="M140.95 1216C139.76 1216.6 138.62 1217.31 137.44 1217.95C172.58 1281.29 226.24 1328.94 262.04 1356C315.89 1338.4 358.39 1298.29 380.03 1247.88C322.36 1217.15 220.19 1175.95 140.96 1216H140.95Z" fill="#EE7A62" stroke="#712F1B" stroke-width="14.53" stroke-miterlimit="10"/>
<path d="M1114.23 1383.76L1129.14 1359.67C1189.23 1262.57 1225.41 1162.52 1236.68 1062.29L1241.22 1021.91L1404.19 1119.29L1403.06 1135.34C1395.67 1240.16 1362.13 1346.88 1303.37 1452.54L1291.06 1474.67L1114.24 1383.75L1114.23 1383.76Z" fill="white" stroke="#214057" stroke-width="22.42" stroke-linecap="round" stroke-linejoin="round"/>
<path d="M1151.39 1373.44L1280.49 1439.82C1337.64 1337.05 1369.8 1234.94 1376.95 1133.5L1262.68 1065.22C1250.92 1169.78 1213.85 1272.52 1151.39 1373.44V1373.44Z" fill="#B2CA82"/>
<path d="M1810.24 1413.71L1804.54 1369.21L1633.96 1391.05L1639.66 1435.55L1454.26 1459.29L1395.39 999.49L1573.38 976.7L1568.63 939.61L1319.91 971.46L1308.25 907.62L1294.64 801.34L1546.79 769.05L1543.8 745.72C1484.04 759.1 1438.34 767.86 1407.68 771.78L1390.3 774.01L1294.22 605.41L1332.97 600.45C1388.77 593.31 1465.49 577.21 1561 552.61L1561.16 552.57C1661.45 527.43 1736.96 504.09 1785.58 483.21L1803.13 475.67L1936.92 629.65L1902.98 643.41C1860.75 660.54 1798.97 680.27 1719.09 702.13L1724.74 746.26L1976.89 713.97L1998.73 884.54L1746.58 916.83L1751.33 953.92L1936.73 930.18L1995.6 1389.98L1810.2 1413.72L1810.24 1413.71ZM1783.65 1206.06L1772.73 1120.77L1602.15 1142.61L1613.07 1227.9L1783.65 1206.06Z" fill="white" stroke="#214057" stroke-width="22.42" stroke-linecap="round" stroke-linejoin="round"/>
<path d="M1971.51 861.39L1956.32 742.73L1704.17 775.02L1692.3 682.32C1782.15 658.27 1849.8 637.07 1895.21 618.65L1797.96 506.73C1747.95 528.21 1671.82 551.8 1569.57 577.43C1472.26 602.49 1395.17 618.6 1338.33 625.88L1406.39 745.31C1440.98 740.88 1494.91 730.21 1568.12 713.29L1578.09 791.16L1325.94 823.45L1336.14 903.09L1343.22 941.84L1593.29 909.82L1604.69 998.81L1426.7 1021.6L1478.93 1429.49L1612.42 1412.4L1606.72 1367.9L1829.21 1339.41L1834.91 1383.91L1968.4 1366.82L1916.17 958.93L1730.77 982.67L1719.37 893.68L1971.52 861.39H1971.51ZM1797.39 1090.97L1814.96 1228.17L1592.47 1256.66L1574.9 1119.46L1797.39 1090.97Z" fill="#B2CA82"/>
<path d="M1152.13 1373.52L1281.23 1439.9C1338.38 1337.13 1370.54 1235.02 1377.69 1133.58L1263.42 1065.3C1251.66 1169.86 1214.59 1272.6 1152.13 1373.52V1373.52Z" fill="#B2CA82"/>
<path d="M1972.26 861.47L1957.07 742.81L1704.92 775.1L1693.05 682.4C1782.9 658.35 1850.55 637.15 1895.96 618.73L1798.71 506.81C1748.7 528.29 1672.57 551.88 1570.32 577.51C1473.01 602.57 1395.92 618.68 1339.08 625.96L1407.14 745.39C1441.73 740.96 1495.66 730.29 1568.87 713.37L1578.84 791.24L1326.69 823.53L1336.89 903.17L1343.97 941.92L1594.04 909.9L1605.44 998.89L1427.45 1021.68L1479.68 1429.57L1613.17 1412.48L1607.47 1367.98L1829.96 1339.49L1835.66 1383.99L1969.15 1366.9L1916.92 959.01L1731.52 982.75L1720.12 893.76L1972.27 861.47H1972.26ZM1798.14 1091.05L1815.71 1228.25L1593.22 1256.74L1575.65 1119.54L1798.14 1091.05Z" fill="#B2CA82"/>
<path d="M1166.7 861.15C1191.88 853.89 1219.69 855.25 1245.4 866.99C1302.51 893.08 1327.66 960.53 1301.57 1017.64C1275.48 1074.75 1208.03 1099.9 1150.92 1073.81C1093.81 1047.72 1068.66 980.27 1094.75 923.16C1109.1 891.76 1135.94 870.02 1166.7 861.14" fill="white"/>
<path d="M1166.7 861.15C1191.88 853.89 1219.69 855.25 1245.4 866.99C1302.51 893.08 1327.66 960.53 1301.57 1017.64C1275.48 1074.75 1208.03 1099.9 1150.92 1073.81C1093.81 1047.72 1068.66 980.27 1094.75 923.16C1109.1 891.76 1135.94 870.02 1166.7 861.14" stroke="#231815" stroke-width="14.36" stroke-miterlimit="10"/>
<path d="M1155.4 865.06L1169.76 877.4" stroke="#E60012" stroke-width="2.8" stroke-linecap="round" stroke-linejoin="round"/>
<path d="M1183.3 857.85L1169.76 877.4" stroke="#E60012" stroke-width="2.8" stroke-linecap="round" stroke-linejoin="round"/>
<path d="M1154.05 883.61L1174.43 895.87" stroke="#E60012" stroke-width="2.8" stroke-linecap="round" stroke-linejoin="round"/>
<path d="M1184.51 874.34L1174.43 895.87" stroke="#E60012" stroke-width="2.8" stroke-linecap="round" stroke-linejoin="round"/>
<path d="M1160.55 902.9L1182.7 911.56" stroke="#E60012" stroke-width="2.8" stroke-linecap="round" stroke-linejoin="round"/>
<path d="M1189.01 888.64L1182.7 911.56" stroke="#E60012" stroke-width="2.8" stroke-linecap="round" stroke-linejoin="round"/>
<path d="M1170.57 920.74L1193.87 925.49" stroke="#E60012" stroke-width="2.8" stroke-linecap="round" stroke-linejoin="round"/>
<path d="M1196.17 901.82L1193.87 925.49" stroke="#E60012" stroke-width="2.8" stroke-linecap="round" stroke-linejoin="round"/>
<path d="M1184.03 936.67L1207.8 937.28" stroke="#E60012" stroke-width="2.8" stroke-linecap="round" stroke-linejoin="round"/>
<path d="M1205.95 913.58L1207.8 937.28" stroke="#E60012" stroke-width="2.8" stroke-linecap="round" stroke-linejoin="round"/>
<path d="M1200.88 950.19L1224.38 946.59" stroke="#E60012" stroke-width="2.8" stroke-linecap="round" stroke-linejoin="round"/>
<path d="M1218.36 923.59L1224.38 946.59" stroke="#E60012" stroke-width="2.8" stroke-linecap="round" stroke-linejoin="round"/>
<path d="M1222.56 961.99L1245.05 954.29" stroke="#E60012" stroke-width="2.8" stroke-linecap="round" stroke-linejoin="round"/>
<path d="M1235.06 932.71L1245.05 954.29" stroke="#E60012" stroke-width="2.8" stroke-linecap="round" stroke-linejoin="round"/>
<path d="M1245.44 969.96L1266.25 958.46" stroke="#E60012" stroke-width="2.8" stroke-linecap="round" stroke-linejoin="round"/>
<path d="M1252.65 938.95L1266.25 958.46" stroke="#E60012" stroke-width="2.8" stroke-linecap="round" stroke-linejoin="round"/>
<path d="M1268.93 974.14L1287.47 959.25" stroke="#E60012" stroke-width="2.8" stroke-linecap="round" stroke-linejoin="round"/>
<path d="M1270.74 942.36L1287.47 959.25" stroke="#E60012" stroke-width="2.8" stroke-linecap="round" stroke-linejoin="round"/>
<path d="M1292.48 974.6L1308.26 956.81" stroke="#E60012" stroke-width="2.8" stroke-linecap="round" stroke-linejoin="round"/>
<path d="M1288.92 942.97L1308.26 956.81" stroke="#E60012" stroke-width="2.8" stroke-linecap="round" stroke-linejoin="round"/>
<path d="M1084.5 972.92L1101.52 981.21" stroke="#E60012" stroke-width="2.8" stroke-linecap="round" stroke-linejoin="round"/>
<path d="M1088.95 1001.39L1101.52 981.21" stroke="#E60012" stroke-width="2.8" stroke-linecap="round" stroke-linejoin="round"/>
<path d="M1100.99 964.33L1120.33 978.17" stroke="#E60012" stroke-width="2.8" stroke-linecap="round" stroke-linejoin="round"/>
<path d="M1104.56 995.97L1120.33 978.17" stroke="#E60012" stroke-width="2.8" stroke-linecap="round" stroke-linejoin="round"/>
<path d="M1121.28 962.65L1138.01 979.54" stroke="#E60012" stroke-width="2.8" stroke-linecap="round" stroke-linejoin="round"/>
<path d="M1119.47 994.43L1138.01 979.54" stroke="#E60012" stroke-width="2.8" stroke-linecap="round" stroke-linejoin="round"/>
<path d="M1141.63 964.76L1155.23 984.27" stroke="#E60012" stroke-width="2.8" stroke-linecap="round" stroke-linejoin="round"/>
<path d="M1134.42 995.77L1155.23 984.27" stroke="#E60012" stroke-width="2.8" stroke-linecap="round" stroke-linejoin="round"/>
<path d="M1161.59 970.81L1171.58 992.39" stroke="#E60012" stroke-width="2.8" stroke-linecap="round" stroke-linejoin="round"/>
<path d="M1149.08 1000.09L1171.58 992.39" stroke="#E60012" stroke-width="2.8" stroke-linecap="round" stroke-linejoin="round"/>
<path d="M1180.68 980.91L1186.7 1003.92" stroke="#E60012" stroke-width="2.8" stroke-linecap="round" stroke-linejoin="round"/>
<path d="M1163.2 1007.51L1186.7 1003.92" stroke="#E60012" stroke-width="2.8" stroke-linecap="round" stroke-linejoin="round"/>
<path d="M1200.11 996.13L1201.97 1019.84" stroke="#E60012" stroke-width="2.8" stroke-linecap="round" stroke-linejoin="round"/>
<path d="M1178.2 1019.22L1201.97 1019.84" stroke="#E60012" stroke-width="2.8" stroke-linecap="round" stroke-linejoin="round"/>
<path d="M1216.5 1013.98L1214.2 1037.65" stroke="#E60012" stroke-width="2.8" stroke-linecap="round" stroke-linejoin="round"/>
<path d="M1190.9 1032.9L1214.2 1037.65" stroke="#E60012" stroke-width="2.8" stroke-linecap="round" stroke-linejoin="round"/>
<path d="M1229.66 1033.89L1223.34 1056.81" stroke="#E60012" stroke-width="2.8" stroke-linecap="round" stroke-linejoin="round"/>
<path d="M1201.2 1048.15L1223.34 1056.81" stroke="#E60012" stroke-width="2.8" stroke-linecap="round" stroke-linejoin="round"/>
<path d="M1239.42 1055.33L1229.34 1076.86" stroke="#E60012" stroke-width="2.8" stroke-linecap="round" stroke-linejoin="round"/>
<path d="M1208.97 1064.6L1229.34 1076.86" stroke="#E60012" stroke-width="2.8" stroke-linecap="round" stroke-linejoin="round"/>
<path d="M1264.96 655.7C1279.69 677.38 1287.05 704.23 1283.88 732.32C1276.84 794.71 1220.55 839.59 1158.16 832.55C1095.77 825.51 1050.89 769.22 1057.93 706.83C1064.97 644.44 1121.26 599.56 1183.65 606.6C1217.96 610.47 1246.97 629.23 1264.96 655.7Z" fill="white" stroke="#231815" stroke-width="14.36" stroke-miterlimit="10"/>
<path d="M1257.72 646.17L1250.46 663.66" stroke="#E60012" stroke-width="2.8" stroke-linecap="round" stroke-linejoin="round"/>
<path d="M1273.25 670.45L1250.46 663.66" stroke="#E60012" stroke-width="2.8" stroke-linecap="round" stroke-linejoin="round"/>
<path d="M1239.68 650.66L1234.36 673.84" stroke="#E60012" stroke-width="2.8" stroke-linecap="round" stroke-linejoin="round"/>
<path d="M1257.96 676.72L1234.36 673.84" stroke="#E60012" stroke-width="2.8" stroke-linecap="round" stroke-linejoin="round"/>
<path d="M1223.36 662.84L1222.02 686.58" stroke="#E60012" stroke-width="2.8" stroke-linecap="round" stroke-linejoin="round"/>
<path d="M1245.77 685.45L1222.02 686.58" stroke="#E60012" stroke-width="2.8" stroke-linecap="round" stroke-linejoin="round"/>
<path d="M1209.52 677.9L1212.25 701.52" stroke="#E60012" stroke-width="2.8" stroke-linecap="round" stroke-linejoin="round"/>
<path d="M1235.46 696.35L1212.25 701.52" stroke="#E60012" stroke-width="2.8" stroke-linecap="round" stroke-linejoin="round"/>
<path d="M1198.57 695.65L1205.38 718.44" stroke="#E60012" stroke-width="2.8" stroke-linecap="round" stroke-linejoin="round"/>
<path d="M1227.33 709.3L1205.38 718.44" stroke="#E60012" stroke-width="2.8" stroke-linecap="round" stroke-linejoin="round"/>
<path d="M1190.96 715.87L1201.68 737.09" stroke="#E60012" stroke-width="2.8" stroke-linecap="round" stroke-linejoin="round"/>
<path d="M1221.68 724.21L1201.68 737.09" stroke="#E60012" stroke-width="2.8" stroke-linecap="round" stroke-linejoin="round"/>
<path d="M1186.48 740.14L1200.79 759.13" stroke="#E60012" stroke-width="2.8" stroke-linecap="round" stroke-linejoin="round"/>
<path d="M1218.19 742.92L1200.79 759.13" stroke="#E60012" stroke-width="2.8" stroke-linecap="round" stroke-linejoin="round"/>
<path d="M1186.02 764.36L1203.42 780.57" stroke="#E60012" stroke-width="2.8" stroke-linecap="round" stroke-linejoin="round"/>
<path d="M1217.73 761.58L1203.42 780.57" stroke="#E60012" stroke-width="2.8" stroke-linecap="round" stroke-linejoin="round"/>
<path d="M1189.35 787.99L1209.27 800.99" stroke="#E60012" stroke-width="2.8" stroke-linecap="round" stroke-linejoin="round"/>
<path d="M1220.12 779.83L1209.27 800.99" stroke="#E60012" stroke-width="2.8" stroke-linecap="round" stroke-linejoin="round"/>
<path d="M1196.24 810.52L1218.05 819.98" stroke="#E60012" stroke-width="2.8" stroke-linecap="round" stroke-linejoin="round"/>
<path d="M1225.19 797.3L1218.05 819.98" stroke="#E60012" stroke-width="2.8" stroke-linecap="round" stroke-linejoin="round"/>
<path d="M1133.16 612.32L1130.58 631.08" stroke="#E60012" stroke-width="2.8" stroke-linecap="round" stroke-linejoin="round"/>
<path d="M1107.49 625.4L1130.58 631.08" stroke="#E60012" stroke-width="2.8" stroke-linecap="round" stroke-linejoin="round"/>
<path d="M1146.45 625.33L1139.32 648.01" stroke="#E60012" stroke-width="2.8" stroke-linecap="round" stroke-linejoin="round"/>
<path d="M1117.5 638.55L1139.32 648.01" stroke="#E60012" stroke-width="2.8" stroke-linecap="round" stroke-linejoin="round"/>
<path d="M1154.36 644.09L1143.51 665.24" stroke="#E60012" stroke-width="2.8" stroke-linecap="round" stroke-linejoin="round"/>
<path d="M1123.59 652.25L1143.51 665.24" stroke="#E60012" stroke-width="2.8" stroke-linecap="round" stroke-linejoin="round"/>
<path d="M1158.68 664.09L1144.37 683.08" stroke="#E60012" stroke-width="2.8" stroke-linecap="round" stroke-linejoin="round"/>
<path d="M1126.97 666.87L1144.37 683.08" stroke="#E60012" stroke-width="2.8" stroke-linecap="round" stroke-linejoin="round"/>
<path d="M1159.14 684.94L1141.74 701.14" stroke="#E60012" stroke-width="2.8" stroke-linecap="round" stroke-linejoin="round"/>
<path d="M1127.43 682.15L1141.74 701.14" stroke="#E60012" stroke-width="2.8" stroke-linecap="round" stroke-linejoin="round"/>
<path d="M1155.47 706.22L1135.48 719.1" stroke="#E60012" stroke-width="2.8" stroke-linecap="round" stroke-linejoin="round"/>
<path d="M1124.75 697.88L1135.48 719.1" stroke="#E60012" stroke-width="2.8" stroke-linecap="round" stroke-linejoin="round"/>
<path d="M1147.05 729.42L1125.1 738.56" stroke="#E60012" stroke-width="2.8" stroke-linecap="round" stroke-linejoin="round"/>
<path d="M1118.29 715.78L1125.1 738.56" stroke="#E60012" stroke-width="2.8" stroke-linecap="round" stroke-linejoin="round"/>
<path d="M1135.18 750.55L1111.97 755.72" stroke="#E60012" stroke-width="2.8" stroke-linecap="round" stroke-linejoin="round"/>
<path d="M1109.24 732.1L1111.97 755.72" stroke="#E60012" stroke-width="2.8" stroke-linecap="round" stroke-linejoin="round"/>
<path d="M1120.35 769.24L1096.6 770.37" stroke="#E60012" stroke-width="2.8" stroke-linecap="round" stroke-linejoin="round"/>
<path d="M1097.95 746.63L1096.6 770.37" stroke="#E60012" stroke-width="2.8" stroke-linecap="round" stroke-linejoin="round"/>
<path d="M1103.01 785.19L1079.41 782.3" stroke="#E60012" stroke-width="2.8" stroke-linecap="round" stroke-linejoin="round"/>
<path d="M1084.73 759.13L1079.41 782.3" stroke="#E60012" stroke-width="2.8" stroke-linecap="round" stroke-linejoin="round"/>
<path d="M2495.93 1396.23C2389.73 1384.63 2259.45 1361.48 2108.43 1327.37L2086.26 1322.36L2103.88 1165.68L2133.05 1172.13L2254.45 754.27L2219.62 744.15L2259.08 608.34L2311.66 623.62L2296.28 498.3L2333.25 509.04C2465.64 547.51 2594.11 571.06 2715.09 579.05L2734.53 580.33L2765.78 738.08L2734.74 737.95C2724.31 737.91 2712.44 737.31 2699.07 736.16L2757.08 753.01L2751.01 773.91L2785.84 784.03L2833.4 620.35L2993.59 666.89L2946.03 830.57L3092.81 873.22L2981.84 1227.18L2915.6 1416.09C2899.05 1463.07 2879.52 1493.42 2855.88 1508.9L2855.46 1509.17C2824.5 1528.6 2788.73 1532.62 2749.16 1521.13L2651.9 1492.87L2661.89 1408.34C2636.38 1431 2609 1450.78 2579.86 1467.59L2560.84 1478.56L2495.91 1396.23H2495.93ZM2744.05 1330.83C2750.18 1332.61 2753.28 1333.51 2758.26 1321.29L2780.95 1260.57C2777.29 1266.35 2773.55 1272.08 2769.72 1277.79C2758.92 1295.49 2747.48 1312.35 2735.43 1328.33L2744.05 1330.84V1330.83ZM2588.09 1230.69C2600.84 1216.33 2613.56 1200.2 2626.2 1182.35C2659.42 1134.21 2684.54 1085.52 2700.87 1037.61L2735.44 939.34L2677.62 922.54L2607.8 1162.84L2588.09 1230.69Z" fill="white" stroke="#214057" stroke-width="21.75" stroke-linecap="round" stroke-linejoin="round"/>
<path d="M2326.18 533.42C2460.8 572.53 2589.87 596.22 2713.42 604.39L2734.86 712.58C2699.62 712.43 2645.02 705.36 2571.06 691.43L2561.95 722.77L2725.63 770.33L2719.56 791.23L2803.14 815.51L2850.7 651.83L2962.14 684.21L2914.58 847.89L3060.85 890.39L2957.76 1219.21L2891.66 1407.71C2877.18 1448.82 2860.64 1475.47 2841.99 1487.69C2817.31 1503.18 2788.75 1506.21 2756.27 1496.77L2679.65 1474.51L2695.18 1343.07L2736.97 1355.21C2757.87 1361.28 2772.82 1353.06 2781.91 1330.5L2832.83 1194.23L2907.59 962.92L2879.73 954.83L2830.27 1099.07C2811.06 1156.45 2783.75 1211.48 2748.34 1264.09C2700.14 1343.26 2639.79 1403.74 2567.2 1445.61L2509.24 1372.12C2401.66 1360.99 2269.95 1337.83 2114.02 1302.61L2125.95 1196.56L2289.18 1232.66L2300.31 1194.35L2164.49 1154.89L2188.77 1071.31L2324.59 1110.77L2330.66 1089.87L2194.84 1050.41L2277.81 764.84L2413.63 804.3L2421.72 776.44L2251.08 726.86L2276.38 639.8L2447.02 689.38L2453.09 668.48L2339.63 643.07L2326.17 533.42H2326.18ZM2724.91 1045.8L2768.3 922.45L2681.24 897.15L2693.38 855.36L2536.67 809.83L2528.58 837.69L2664.4 877.15L2581.43 1162.72L2445.61 1123.26L2440.55 1140.67L2576.37 1180.13L2551.07 1267.19L2415.25 1227.73L2407.16 1255.59L2530.63 1272.58L2529.95 1313.92C2569.53 1290.2 2608.59 1251.21 2647.04 1196.88C2681.78 1146.55 2707.74 1096.21 2724.93 1045.79L2724.91 1045.8Z" fill="#DA404F"/>
<path d="M2466.94 1069.21C2466.94 1069.21 2481.31 1074.14 2496.15 1084.61C2501.11 1069.87 2500.39 1049.06 2492.95 1027.89C2480.6 992.75 2434.51 976.95 2434.51 976.95C2434.51 976.95 2408.45 1018.11 2420.8 1053.25C2428.24 1074.43 2440.7 1091.11 2453.79 1099.5C2458.82 1082.05 2466.94 1069.21 2466.94 1069.21Z" fill="#E9CACF"/>
<path d="M2341.17 1031.64C2341.17 1031.64 2340.92 1046.83 2335.55 1064.18C2351.1 1064.34 2370.67 1057.23 2388.5 1043.6C2418.1 1021 2418.89 972.28 2418.89 972.28C2418.89 972.28 2371.69 960.22 2342.09 982.82C2324.25 996.44 2312.24 1013.45 2308.3 1028.49C2326.45 1027.88 2341.17 1031.63 2341.17 1031.63V1031.64Z" fill="#E9CACF"/>
<path d="M2338.03 900.41C2338.03 900.41 2323.51 904.87 2305.35 905.12C2310 919.96 2322.81 936.37 2341.28 949.12C2371.92 970.29 2418.5 955.98 2418.5 955.98C2418.5 955.98 2415.39 907.36 2384.74 886.19C2366.27 873.43 2346.38 867.26 2330.86 868.16C2337.05 885.23 2338.03 900.39 2338.03 900.39V900.41Z" fill="#E9CACF"/>
<path d="M2461.87 856.88C2461.87 856.88 2453.14 844.44 2447.29 827.25C2434.62 836.26 2422.97 853.52 2416.54 875.02C2405.88 910.7 2433.87 950.58 2433.87 950.58C2433.87 950.58 2479.15 932.6 2489.81 896.91C2496.23 875.4 2495.96 854.58 2490.31 840.1C2475.99 851.26 2461.87 856.88 2461.87 856.88V856.88Z" fill="#E9CACF"/>
<path d="M2541.54 961.21C2541.54 961.21 2550.67 949.07 2565.21 938.19C2552.73 928.92 2532.71 923.17 2510.27 923.71C2473.04 924.6 2443.77 963.54 2443.77 963.54C2443.77 963.54 2474.87 1001.05 2512.1 1000.16C2534.54 999.62 2554.26 992.93 2566.28 983.08C2551.24 972.91 2541.53 961.21 2541.53 961.21H2541.54Z" fill="#E9CACF"/>
<path d="M2789.19 922.76C2789.19 922.76 2804.33 921.45 2822.14 925C2820.7 909.52 2811.61 890.79 2796.22 874.45C2770.69 847.34 2722.15 851.57 2722.15 851.57C2722.15 851.57 2715.01 899.76 2740.54 926.88C2755.93 943.22 2774.08 953.42 2789.45 955.79C2786.97 937.8 2789.19 922.77 2789.19 922.77V922.76Z" fill="#E9CACF"/>
<path d="M2326.81 533.78C2461.43 572.89 2590.5 596.58 2714.05 604.75L2735.49 712.94C2700.25 712.79 2645.65 705.72 2571.69 691.79L2562.58 723.13L2726.26 770.69L2720.19 791.59L2803.77 815.87L2851.33 652.19L2962.77 684.57L2915.21 848.25L3061.48 890.75L2958.39 1219.57L2892.29 1408.07C2877.81 1449.18 2861.27 1475.83 2842.62 1488.05C2817.94 1503.54 2789.38 1506.57 2756.9 1497.13L2680.28 1474.87L2695.81 1343.43L2737.6 1355.57C2758.5 1361.64 2773.45 1353.42 2782.54 1330.86L2833.46 1194.59L2908.22 963.28L2880.36 955.19L2830.9 1099.43C2811.69 1156.81 2784.38 1211.84 2748.97 1264.45C2700.77 1343.62 2640.42 1404.1 2567.83 1445.97L2509.87 1372.48C2402.29 1361.35 2270.58 1338.19 2114.65 1302.97L2126.58 1196.92L2289.81 1233.02L2300.94 1194.71L2165.12 1155.25L2189.4 1071.67L2325.22 1111.13L2331.29 1090.23L2195.47 1050.77L2278.44 765.2L2414.26 804.66L2422.35 776.8L2251.71 727.22L2277.01 640.16L2447.65 689.74L2453.72 668.84L2340.26 643.43L2326.8 533.78H2326.81ZM2725.54 1046.16L2768.93 922.81L2681.87 897.51L2694.01 855.72L2537.3 810.19L2529.21 838.05L2665.03 877.51L2582.06 1163.08L2446.24 1123.62L2441.18 1141.03L2577 1180.49L2551.7 1267.55L2415.88 1228.09L2407.79 1255.95L2531.26 1272.94L2530.58 1314.28C2570.16 1290.56 2609.22 1251.57 2647.67 1197.24C2682.41 1146.91 2708.37 1096.57 2725.56 1046.15L2725.54 1046.16Z" fill="#DA404F"/>
<path d="M2467.57 1069.57C2467.57 1069.57 2481.94 1074.5 2496.78 1084.97C2501.74 1070.23 2501.02 1049.42 2493.58 1028.25C2481.23 993.11 2435.14 977.31 2435.14 977.31C2435.14 977.31 2409.08 1018.47 2421.43 1053.61C2428.87 1074.79 2441.33 1091.47 2454.42 1099.86C2459.45 1082.41 2467.57 1069.57 2467.57 1069.57Z" fill="#E9CACF"/>
<path d="M2341.8 1032C2341.8 1032 2341.55 1047.19 2336.18 1064.54C2351.73 1064.7 2371.3 1057.59 2389.13 1043.96C2418.73 1021.36 2419.52 972.64 2419.52 972.64C2419.52 972.64 2372.32 960.58 2342.72 983.18C2324.88 996.8 2312.87 1013.81 2308.93 1028.85C2327.08 1028.24 2341.8 1031.99 2341.8 1031.99V1032Z" fill="#E9CACF"/>
<path d="M2338.67 900.77C2338.67 900.77 2324.15 905.23 2305.99 905.48C2310.64 920.32 2323.45 936.73 2341.92 949.48C2372.56 970.65 2419.14 956.34 2419.14 956.34C2419.14 956.34 2416.03 907.72 2385.38 886.55C2366.91 873.79 2347.02 867.62 2331.5 868.52C2337.69 885.59 2338.67 900.75 2338.67 900.75V900.77Z" fill="#E9CACF"/>
<path d="M2462.51 857.24C2462.51 857.24 2453.78 844.8 2447.93 827.61C2435.26 836.62 2423.61 853.88 2417.18 875.38C2406.52 911.06 2434.51 950.94 2434.51 950.94C2434.51 950.94 2479.79 932.96 2490.45 897.27C2496.87 875.76 2496.6 854.94 2490.95 840.46C2476.63 851.62 2462.51 857.24 2462.51 857.24Z" fill="#E9CACF"/>
<path d="M2542.18 961.57C2542.18 961.57 2551.31 949.43 2565.85 938.55C2553.37 929.28 2533.35 923.53 2510.91 924.07C2473.68 924.96 2444.41 963.9 2444.41 963.9C2444.41 963.9 2475.51 1001.41 2512.74 1000.52C2535.18 999.98 2554.9 993.29 2566.92 983.44C2551.88 973.27 2542.17 961.57 2542.17 961.57H2542.18Z" fill="#E9CACF"/>
<path d="M2736.31 1530.13C2736.31 1530.13 2753.77 1528.61 2774.32 1532.72C2772.66 1514.86 2762.17 1493.24 2744.42 1474.39C2714.96 1443.11 2658.96 1447.99 2658.96 1447.99C2658.96 1447.99 2650.72 1503.59 2680.18 1534.88C2697.93 1553.73 2718.88 1565.5 2736.61 1568.24C2733.75 1547.48 2736.31 1530.14 2736.31 1530.14V1530.13Z" fill="#E9CACF"/>
<path d="M3048.91 849.06C3048.91 849.06 3053.56 833.73 3064.02 817.68C3048.3 813.02 3026.39 814.58 3004.36 823.24C2967.8 837.61 2952.92 886.78 2952.92 886.78C2952.92 886.78 2997.3 912.67 3033.86 898.3C3055.89 889.64 3073 875.87 3081.34 861.75C3062.75 857.12 3048.91 849.06 3048.91 849.06V849.06Z" fill="#E9CACF"/>
<path d="M3875.63 412.5L3071.76 523.81L3135.22 197.44L3922.94 0L3875.63 412.5Z" fill="#234159"/>
<path d="M3834.18 385.59L3092.49 494.94L3158.12 214.28L3886.38 50.6699L3834.18 385.59Z" fill="white"/>
<path d="M3455.39 603.79L3399.99 568.74L3287.58 654.83L3455.39 603.79Z" fill="#234159"/>
<path d="M3205.56 311.36C3202.25 293.7 3205.55 278.28 3215.46 265.12C3225.04 253.11 3237.89 245.59 3254.01 242.57C3280.52 237.61 3300.01 246.87 3312.48 270.36C3324.95 293.85 3320.04 316.56 3297.79 338.48L3277.46 359.23C3267.58 369.69 3261.25 377.6 3258.5 382.95L3336.47 368.35L3341.29 394.08L3225.12 415.83C3220.12 392.03 3228.23 369.25 3249.45 347.52L3273.24 323.7C3286.79 309.87 3290.38 296.02 3284.02 282.14C3280.48 274.73 3274.78 270.15 3266.92 268.39C3259.57 266.54 3252.61 268.12 3246.01 273.11C3237.01 279.64 3233.4 290.54 3235.18 305.8L3205.55 311.35L3205.56 311.36Z" fill="#234159"/>
<path d="M3353.44 316.77C3347.43 290.46 3349.58 267.46 3359.89 247.77C3369.86 229.23 3384.47 218.15 3403.71 214.55C3422.42 211.05 3438.76 214.99 3452.73 226.36C3467.21 237.65 3477.11 254.62 3482.44 277.29C3488.96 303.51 3487.28 326.15 3477.4 345.21C3468.45 363.55 3454.11 374.59 3434.36 378.28C3416.16 381.69 3399.62 378.05 3384.71 367.4C3369.18 356.32 3358.76 339.45 3353.44 316.76V316.77ZM3425.79 354.07C3438.03 353.39 3446.56 347.23 3451.38 335.56C3455.54 326.18 3456.77 314.11 3455.09 299.36C3452.91 282.01 3448.06 267.59 3440.53 256.09C3432.27 243.65 3422.86 237.89 3412.27 238.78C3400.01 239.46 3391.61 244.8 3387.02 254.8C3382.01 265.42 3380.4 278.37 3382.18 293.63C3383.93 311.6 3388.82 326.28 3396.88 337.68C3404.93 349.09 3414.56 354.54 3425.77 354.06L3425.79 354.07Z" fill="#234159"/>
<path d="M3504.95 255.31C3501.64 237.65 3504.93 222.23 3514.85 209.07C3524.43 197.06 3537.28 189.54 3553.4 186.52C3579.91 181.56 3599.4 190.82 3611.87 214.31C3624.34 237.8 3619.43 260.51 3597.18 282.43L3576.85 303.18C3566.97 313.64 3560.64 321.55 3557.89 326.9L3635.86 312.3L3640.68 338.03L3524.51 359.78C3519.51 335.98 3527.62 313.2 3548.84 291.47L3572.63 267.65C3586.18 253.82 3589.77 239.97 3583.41 226.09C3579.87 218.68 3574.17 214.1 3566.31 212.34C3558.96 210.49 3552 212.07 3545.4 217.06C3536.4 223.59 3532.79 234.49 3534.57 249.75L3504.94 255.3L3504.95 255.31Z" fill="#234159"/>
<path d="M3654.65 227.29C3651.34 209.63 3654.64 194.21 3664.55 181.05C3674.13 169.04 3686.98 161.52 3703.1 158.5C3729.61 153.54 3749.1 162.8 3761.57 186.29C3774.04 209.78 3769.13 232.49 3746.88 254.41L3726.55 275.16C3716.67 285.62 3710.34 293.53 3707.59 298.88L3785.56 284.28L3790.38 310.01L3674.21 331.76C3669.21 307.96 3677.32 285.18 3698.54 263.45L3722.33 239.63C3735.88 225.8 3739.47 211.95 3733.11 198.07C3729.57 190.66 3723.87 186.08 3716.01 184.32C3708.66 182.47 3701.7 184.05 3695.1 189.04C3686.1 195.57 3682.49 206.47 3684.27 221.73L3654.64 227.28L3654.65 227.29Z" fill="#234159"/>
<path d="M3416.75 449.55L3365.84 478.1L3397.91 582.14L3455.36 604.14L3416.75 449.55Z" fill="#234159"/>
<path d="M3780.9 1008.28H3296.11V1350.37H3780.9V1008.28Z" fill="white" stroke="#234159" stroke-width="10.36" stroke-linecap="round" stroke-linejoin="round"/>
<path d="M3332.17 1095.67H3324.52V1030.39H3332.17V1095.67Z" fill="#234159"/>
<path d="M3391.13 1095.67H3383.66V1069.08C3383.66 1059.19 3380.05 1054.24 3372.83 1054.24C3369.1 1054.24 3366.01 1055.64 3363.57 1058.45C3361.13 1061.26 3359.91 1064.8 3359.91 1069.08V1095.67H3352.44V1049.05H3359.91V1056.79H3360.09C3363.61 1050.9 3368.71 1047.96 3375.39 1047.96C3380.49 1047.96 3384.39 1049.61 3387.09 1052.9C3389.79 1056.19 3391.14 1060.95 3391.14 1067.17V1095.67H3391.13Z" fill="#234159"/>
<path d="M3350.83 1208.64C3341.57 1208.64 3334.16 1205.59 3328.59 1199.49C3323.02 1193.39 3320.24 1185.45 3320.24 1175.68C3320.24 1165.18 3323.08 1156.8 3328.75 1150.55C3334.43 1144.3 3342.15 1141.17 3351.92 1141.17C3360.93 1141.17 3368.2 1144.2 3373.7 1150.27C3379.21 1156.34 3381.96 1164.28 3381.96 1174.08C3381.96 1184.73 3379.14 1193.15 3373.49 1199.35C3367.85 1205.54 3360.29 1208.64 3350.82 1208.64H3350.83ZM3351.38 1148.09C3344.52 1148.09 3338.95 1150.56 3334.67 1155.51C3330.39 1160.46 3328.25 1166.95 3328.25 1174.99C3328.25 1183.03 3330.34 1189.51 3334.51 1194.41C3338.68 1199.31 3344.12 1201.76 3350.83 1201.76C3357.99 1201.76 3363.64 1199.42 3367.76 1194.75C3371.89 1190.08 3373.95 1183.54 3373.95 1175.13C3373.95 1166.51 3371.95 1159.85 3367.94 1155.14C3363.93 1150.43 3358.41 1148.08 3351.37 1148.08L3351.38 1148.09Z" fill="#234159"/>
<path d="M3436.6 1207.55H3426.13L3405.55 1185.15H3405.37V1207.55H3397.9V1138.54H3405.37V1182.29H3405.55L3425.13 1160.94H3434.92L3413.3 1183.43L3436.61 1207.56L3436.6 1207.55Z" fill="#234159"/>
<path d="M3481.72 1207.54H3474.25V1200.26H3474.07C3470.82 1205.84 3466.04 1208.64 3459.73 1208.64C3455.09 1208.64 3451.45 1207.41 3448.83 1204.95C3446.2 1202.49 3444.89 1199.23 3444.89 1195.16C3444.89 1186.45 3450.02 1181.38 3460.28 1179.95L3474.26 1177.99C3474.26 1170.07 3471.06 1166.11 3464.65 1166.11C3459.04 1166.11 3453.97 1168.02 3449.44 1171.85V1164.2C3454.02 1161.29 3459.3 1159.83 3465.28 1159.83C3476.24 1159.83 3481.71 1165.63 3481.71 1177.22V1207.54H3481.72ZM3474.25 1183.96L3463.01 1185.51C3459.55 1186 3456.94 1186.85 3455.18 1188.08C3453.42 1189.31 3452.54 1191.49 3452.54 1194.61C3452.54 1196.89 3453.35 1198.75 3454.98 1200.19C3456.6 1201.63 3458.77 1202.35 3461.47 1202.35C3465.17 1202.35 3468.23 1201.05 3470.64 1198.46C3473.05 1195.87 3474.26 1192.58 3474.26 1188.6V1183.96H3474.25Z" fill="#234159"/>
<path d="M3537 1160.93L3515.56 1215.01C3511.74 1224.66 3506.36 1229.49 3499.44 1229.49C3497.5 1229.49 3495.87 1229.29 3494.57 1228.9V1222.21C3496.18 1222.76 3497.65 1223.03 3498.99 1223.03C3502.75 1223.03 3505.58 1220.78 3507.46 1216.29L3511.19 1207.46L3492.98 1160.93H3501.27L3513.88 1196.8C3514.03 1197.26 3514.35 1198.44 3514.84 1200.35H3515.11C3515.26 1199.62 3515.57 1198.47 3516.02 1196.89L3529.27 1160.93H3537.01H3537Z" fill="#234159"/>
<path d="M3582.48 1207.54H3575.01V1200.26H3574.83C3571.58 1205.84 3566.8 1208.64 3560.49 1208.64C3555.85 1208.64 3552.21 1207.41 3549.59 1204.95C3546.96 1202.49 3545.65 1199.23 3545.65 1195.16C3545.65 1186.45 3550.78 1181.38 3561.04 1179.95L3575.02 1177.99C3575.02 1170.07 3571.82 1166.11 3565.41 1166.11C3559.8 1166.11 3554.73 1168.02 3550.2 1171.85V1164.2C3554.78 1161.29 3560.06 1159.83 3566.04 1159.83C3577 1159.83 3582.47 1165.63 3582.47 1177.22V1207.54H3582.48ZM3575.01 1183.96L3563.77 1185.51C3560.31 1186 3557.7 1186.85 3555.94 1188.08C3554.18 1189.31 3553.3 1191.49 3553.3 1194.61C3553.3 1196.89 3554.11 1198.75 3555.74 1200.19C3557.36 1201.63 3559.53 1202.35 3562.23 1202.35C3565.93 1202.35 3568.99 1201.05 3571.4 1198.46C3573.81 1195.87 3575.02 1192.58 3575.02 1188.6V1183.96H3575.01Z" fill="#234159"/>
<path d="M3666.84 1207.54H3659.37V1180.77C3659.37 1175.61 3658.57 1171.88 3656.98 1169.57C3655.39 1167.26 3652.71 1166.11 3648.94 1166.11C3645.75 1166.11 3643.05 1167.57 3640.81 1170.48C3638.58 1173.39 3637.46 1176.88 3637.46 1180.95V1207.54H3629.99V1179.86C3629.99 1170.69 3626.45 1166.11 3619.38 1166.11C3616.1 1166.11 3613.4 1167.48 3611.28 1170.23C3609.16 1172.98 3608.09 1176.55 3608.09 1180.95V1207.54H3600.62V1160.92H3608.09V1168.29H3608.27C3611.58 1162.65 3616.4 1159.82 3622.75 1159.82C3625.94 1159.82 3628.71 1160.71 3631.08 1162.48C3633.45 1164.26 3635.07 1166.59 3635.95 1169.47C3639.41 1163.04 3644.57 1159.82 3651.43 1159.82C3661.69 1159.82 3666.82 1166.15 3666.82 1178.8V1207.53L3666.84 1207.54Z" fill="#234159"/>
<path d="M3718.42 1207.54H3710.95V1200.26H3710.77C3707.52 1205.84 3702.74 1208.64 3696.43 1208.64C3691.79 1208.64 3688.15 1207.41 3685.53 1204.95C3682.9 1202.49 3681.59 1199.23 3681.59 1195.16C3681.59 1186.45 3686.72 1181.38 3696.98 1179.95L3710.96 1177.99C3710.96 1170.07 3707.76 1166.11 3701.35 1166.11C3695.74 1166.11 3690.67 1168.02 3686.14 1171.85V1164.2C3690.72 1161.29 3696 1159.83 3701.98 1159.83C3712.94 1159.83 3718.41 1165.63 3718.41 1177.22V1207.54H3718.42ZM3710.95 1183.96L3699.71 1185.51C3696.25 1186 3693.64 1186.85 3691.88 1188.08C3690.12 1189.31 3689.24 1191.49 3689.24 1194.61C3689.24 1196.89 3690.05 1198.75 3691.68 1200.19C3693.3 1201.63 3695.47 1202.35 3698.17 1202.35C3701.87 1202.35 3704.93 1201.05 3707.34 1198.46C3709.75 1195.87 3710.96 1192.58 3710.96 1188.6V1183.96H3710.95Z" fill="#234159"/>
<path d="M3372.27 1293.02C3372.27 1311.35 3364 1320.52 3347.46 1320.52C3331.62 1320.52 3323.7 1311.7 3323.7 1294.07V1254.15H3331.35V1293.57C3331.35 1306.95 3337 1313.65 3348.28 1313.65C3359.18 1313.65 3364.62 1307.19 3364.62 1294.26V1254.15H3372.27V1293.03V1293.02Z" fill="#234159"/>
<path d="M3430.37 1319.42H3422.9V1292.83C3422.9 1282.94 3419.29 1277.99 3412.07 1277.99C3408.34 1277.99 3405.25 1279.39 3402.81 1282.2C3400.37 1285.01 3399.15 1288.55 3399.15 1292.83V1319.42H3391.68V1272.8H3399.15V1280.54H3399.33C3402.85 1274.65 3407.95 1271.71 3414.63 1271.71C3419.73 1271.71 3423.63 1273.36 3426.33 1276.65C3429.03 1279.94 3430.38 1284.7 3430.38 1290.92V1319.42H3430.37Z" fill="#234159"/>
<path d="M3452.36 1260.97C3451.02 1260.97 3449.89 1260.51 3448.95 1259.6C3448.01 1258.69 3447.54 1257.54 3447.54 1256.14C3447.54 1254.74 3448.01 1253.58 3448.95 1252.66C3449.89 1251.73 3451.03 1251.27 3452.36 1251.27C3453.69 1251.27 3454.89 1251.73 3455.84 1252.66C3456.8 1253.59 3457.27 1254.75 3457.27 1256.14C3457.27 1257.53 3456.79 1258.61 3455.84 1259.55C3454.89 1260.49 3453.72 1260.96 3452.36 1260.96V1260.97ZM3456 1319.42H3448.53V1272.8H3456V1319.42Z" fill="#234159"/>
<path d="M3511.87 1272.81L3493.3 1319.43H3485.97L3468.31 1272.81H3476.5L3488.34 1306.68C3489.22 1309.17 3489.77 1311.34 3489.98 1313.19H3490.16C3490.46 1310.85 3490.95 1308.74 3491.62 1306.86L3504 1272.81H3511.88H3511.87Z" fill="#234159"/>
<path d="M3561.45 1297.98H3528.54C3528.66 1303.17 3530.06 1307.18 3532.73 1310C3535.4 1312.82 3539.07 1314.23 3543.75 1314.23C3549 1314.23 3553.83 1312.5 3558.23 1309.04V1316.05C3554.13 1319.02 3548.72 1320.51 3541.98 1320.51C3535.39 1320.51 3530.22 1318.39 3526.46 1314.16C3522.7 1309.93 3520.82 1303.97 3520.82 1296.29C3520.82 1289.04 3522.88 1283.13 3526.99 1278.56C3531.1 1273.99 3536.21 1271.71 3542.31 1271.71C3548.41 1271.71 3553.13 1273.68 3556.47 1277.63C3559.81 1281.58 3561.48 1287.05 3561.48 1294.06V1297.98H3561.45ZM3553.8 1291.65C3553.77 1287.34 3552.73 1283.99 3550.68 1281.59C3548.63 1279.19 3545.79 1277.99 3542.14 1277.99C3538.62 1277.99 3535.63 1279.25 3533.17 1281.77C3530.71 1284.29 3529.19 1287.58 3528.62 1291.65H3553.79H3553.8Z" fill="#234159"/>
<path d="M3601.15 1280.37C3599.84 1279.37 3597.96 1278.87 3595.51 1278.87C3592.32 1278.87 3589.66 1280.37 3587.52 1283.38C3585.38 1286.38 3584.31 1290.48 3584.31 1295.67V1319.43H3576.84V1272.81H3584.31V1282.42H3584.49C3585.55 1279.14 3587.18 1276.59 3589.36 1274.75C3591.55 1272.91 3593.99 1272 3596.69 1272C3598.63 1272 3600.12 1272.21 3601.15 1272.64V1280.38V1280.37Z" fill="#234159"/>
<path d="M3610.53 1317.74V1309.73C3614.6 1312.73 3619.07 1314.24 3623.96 1314.24C3630.52 1314.24 3633.79 1312.05 3633.79 1307.68C3633.79 1306.44 3633.51 1305.38 3632.95 1304.52C3632.39 1303.66 3631.63 1302.89 3630.67 1302.22C3629.72 1301.55 3628.59 1300.95 3627.3 1300.42C3626.01 1299.89 3624.62 1299.34 3623.14 1298.76C3621.08 1297.94 3619.26 1297.11 3617.7 1296.28C3616.14 1295.45 3614.83 1294.5 3613.78 1293.46C3612.73 1292.41 3611.94 1291.22 3611.41 1289.89C3610.88 1288.55 3610.61 1286.99 3610.61 1285.2C3610.61 1283.01 3611.11 1281.08 3612.11 1279.4C3613.11 1277.72 3614.45 1276.3 3616.12 1275.17C3617.79 1274.03 3619.69 1273.17 3621.83 1272.6C3623.97 1272.02 3626.18 1271.74 3628.45 1271.74C3632.49 1271.74 3636.1 1272.44 3639.28 1273.83V1281.39C3635.85 1279.14 3631.91 1278.02 3627.44 1278.02C3626.04 1278.02 3624.78 1278.18 3623.66 1278.5C3622.54 1278.82 3621.57 1279.27 3620.77 1279.84C3619.96 1280.42 3619.34 1281.11 3618.9 1281.91C3618.46 1282.71 3618.24 1283.6 3618.24 1284.57C3618.24 1285.78 3618.46 1286.8 3618.9 1287.62C3619.34 1288.44 3619.99 1289.17 3620.84 1289.81C3621.69 1290.45 3622.72 1291.02 3623.94 1291.54C3625.16 1292.06 3626.53 1292.62 3628.08 1293.22C3630.14 1294.01 3632 1294.82 3633.63 1295.66C3635.27 1296.49 3636.66 1297.43 3637.82 1298.48C3638.97 1299.53 3639.86 1300.73 3640.48 1302.1C3641.1 1303.47 3641.41 1305.09 3641.41 1306.97C3641.41 1309.28 3640.9 1311.28 3639.89 1312.98C3638.87 1314.68 3637.51 1316.09 3635.82 1317.21C3634.12 1318.33 3632.16 1319.17 3629.95 1319.71C3627.74 1320.25 3625.41 1320.53 3622.98 1320.53C3618.18 1320.53 3614.03 1319.6 3610.51 1317.75L3610.53 1317.74Z" fill="#234159"/>
<path d="M3660.84 1260.97C3659.5 1260.97 3658.37 1260.51 3657.43 1259.6C3656.49 1258.69 3656.02 1257.54 3656.02 1256.14C3656.02 1254.74 3656.49 1253.58 3657.43 1252.66C3658.37 1251.74 3659.51 1251.27 3660.84 1251.27C3662.17 1251.27 3663.37 1251.73 3664.32 1252.66C3665.28 1253.59 3665.75 1254.75 3665.75 1256.14C3665.75 1257.53 3665.27 1258.61 3664.32 1259.55C3663.37 1260.49 3662.2 1260.96 3660.84 1260.96V1260.97ZM3664.48 1319.42H3657.01V1272.8H3664.48V1319.42Z" fill="#234159"/>
<path d="M3705.32 1318.97C3703.56 1319.94 3701.24 1320.43 3698.35 1320.43C3690.19 1320.43 3686.1 1315.88 3686.1 1306.77V1279.18H3678.09V1272.81H3686.1V1261.43L3693.57 1259.02V1272.81H3705.32V1279.18H3693.57V1305.45C3693.57 1308.58 3694.1 1310.81 3695.16 1312.14C3696.22 1313.48 3697.98 1314.14 3700.44 1314.14C3702.32 1314.14 3703.95 1313.62 3705.31 1312.59V1318.96L3705.32 1318.97Z" fill="#234159"/>
<path d="M3756.5 1272.81L3735.06 1326.89C3731.24 1336.54 3725.86 1341.37 3718.94 1341.37C3717 1341.37 3715.37 1341.17 3714.07 1340.78V1334.09C3715.68 1334.64 3717.15 1334.91 3718.49 1334.91C3722.25 1334.91 3725.08 1332.66 3726.96 1328.17L3730.69 1319.34L3712.48 1272.81H3720.77L3733.38 1308.68C3733.53 1309.14 3733.85 1310.32 3734.34 1312.23H3734.61C3734.76 1311.5 3735.07 1310.35 3735.52 1308.77L3748.77 1272.81H3756.51H3756.5Z" fill="#234159"/>
</g>
<defs>
<clipPath id="clip0_1302_944">
<rect width="3922.94" height="2135.52" fill="white"/>
</clipPath>
</defs>
</svg>
